<svg width="28" height="28" viewBox="0 0 28 28" fill="none" xmlns="http://www.w3.org/2000/svg">
<mask id="mask0_1_323" style="mask-type:luminance" maskUnits="userSpaceOnUse" x="1" y="1" width="26" height="26">
<path d="M11.1039 25.6654C10.5322 23.8016 9.67004 22.4115 8.51679 21.4963C6.78721 20.1237 4.03912 20.9771 3.02412 19.5608C2.00912 18.1444 3.73521 15.5404 4.34071 14.0039C4.94679 12.4674 2.01904 11.9244 2.36087 11.488C2.58837 11.1969 4.06829 10.3581 6.79946 8.97037C7.57529 4.5452 10.4412 2.33203 15.3984 2.33203C22.8335 2.33203 25.6662 8.63553 25.6662 12.6454C25.6662 16.654 22.2362 20.973 17.3502 21.9046C16.9133 22.5405 17.5433 23.7946 19.2402 25.6654" stroke="white" stroke-width="1.5" stroke-linecap="round" stroke-linejoin="round"/>
<path fill-rule="evenodd" clip-rule="evenodd" d="M11.3749 8.4559C10.9934 9.93407 11.1066 10.9724 11.715 11.5703C12.3228 12.1677 13.3588 12.5591 14.823 12.7428C14.4905 14.6497 14.8959 15.544 16.0381 15.4262C17.1803 15.3089 17.8668 14.8341 18.0973 14.0028C19.8823 14.5045 20.85 14.0845 20.9999 12.7428C21.2245 10.7303 20.1395 9.12557 19.6944 9.12557C19.2499 9.12557 18.0973 9.07132 18.0973 8.4559C18.0973 7.84048 16.7509 7.4934 15.5358 7.4934C14.3208 7.4934 15.0517 6.67382 13.3833 6.99757C12.2709 7.2134 11.6013 7.69932 11.3749 8.4559Z" fill="white" stroke="white" stroke-width="1.5" stroke-linejoin="round"/>
<path d="M17.7912 14.873C17.198 15.2411 16.3842 15.853 16.0412 16.3314C15.1843 17.5272 14.4896 18.2552 14.3379 19.0194" stroke="white" stroke-width="1.5" stroke-linecap="round"/>
</mask>
<g mask="url(#mask0_1_323)">
<path d="M0 0H28V28H0V0Z" fill="#231F20"/>
</g>
</svg>
