<svg width="28" height="28" viewBox="0 0 28 28" fill="none" xmlns="http://www.w3.org/2000/svg">
<path d="M16.3337 26.2487L13.067 22.1654H7.00033C6.356 22.1654 5.83366 21.643 5.83366 20.9987V8.28502C5.83366 7.64069 6.356 7.11835 7.00033 7.11835H25.667C26.3113 7.11835 26.8337 7.64069 26.8337 8.28502V20.9987C26.8337 21.643 26.3113 22.1654 25.667 22.1654H19.6003L16.3337 26.2487ZM18.4788 19.832H24.5003V9.45168H8.16699V19.832H13.067H14.1885L16.3337 22.5135L18.4788 19.832ZM2.33366 2.33203H22.167V4.66536H3.50033V17.4987H1.16699V3.4987C1.16699 2.85437 1.68933 2.33203 2.33366 2.33203Z" fill="#231F20"/>
</svg>
