<svg width="28" height="28" viewBox="0 0 28 28" fill="none" xmlns="http://www.w3.org/2000/svg">
<path d="M17.5 4.66732H5.83333V23.334H22.1667V9.33398H17.5V4.66732ZM3.5 3.49108C3.5 2.85204 4.02207 2.33398 4.66492 2.33398H18.6667L24.4996 8.16732L24.5 24.4919C24.5 25.141 23.9809 25.6673 23.341 25.6673H4.65897C4.01889 25.6673 3.5 25.1361 3.5 24.5102V3.49108ZM20.5997 14.0007L16.4748 18.1254L14.8249 16.4755L17.2998 14.0007L14.8249 11.5258L16.4748 9.87587L20.5997 14.0007ZM7.40034 14.0007L11.5251 9.87587L13.175 11.5258L10.7002 14.0007L13.175 16.4755L11.5251 18.1254L7.40034 14.0007Z" fill="#231F20"/>
</svg>
