<svg width="28" height="28" viewBox="0 0 28 28" fill="none" xmlns="http://www.w3.org/2000/svg">
<path d="M3.5 4.65897C3.5 4.01889 4.01911 3.5 4.65897 3.5H23.341C23.9811 3.5 24.5 4.01911 24.5 4.65897V23.341C24.5 23.9811 23.9809 24.5 23.341 24.5H4.65897C4.01889 24.5 3.5 23.9809 3.5 23.341V4.65897ZM5.83333 5.83333V22.1667H22.1667V5.83333H5.83333ZM12.3922 9.81702L18.0843 13.6117C18.2987 13.7547 18.3567 14.0444 18.2136 14.2589C18.1795 14.3101 18.1355 14.3541 18.0843 14.3883L12.3922 18.183C12.1778 18.326 11.888 18.268 11.7451 18.0536C11.694 17.9769 11.6667 17.8869 11.6667 17.7947V10.2053C11.6667 9.94757 11.8756 9.73865 12.1333 9.73865C12.2255 9.73865 12.3156 9.76591 12.3922 9.81702Z" fill="#231F20"/>
</svg>
