<svg width="102" height="34" viewBox="0 0 102 34" fill="none" xmlns="http://www.w3.org/2000/svg">
<g clip-path="url(#clip0_1_195)">
<path d="M98.517 20.3906L101.338 22.2712C100.422 23.6197 98.2326 25.9334 94.4466 25.9334C89.7453 25.9334 86.2441 22.296 86.2441 17.6688C86.2441 12.7448 89.7824 9.4043 94.0508 9.4043C98.3438 9.4043 100.447 12.8189 101.128 14.6623L101.499 15.6027L90.4382 20.1803C91.2795 21.8382 92.5911 22.6795 94.4466 22.6795C96.3026 22.6795 97.5891 21.764 98.517 20.3906ZM89.8444 17.4092L97.2305 14.3408C96.8221 13.314 95.6099 12.5841 94.162 12.5841C92.3188 12.5841 89.7578 14.2172 89.8444 17.4092Z" fill="#FF302F"/>
<path d="M80.9122 0.978714H84.4752V25.1785H80.9122V0.978516V0.978714Z" fill="#20B15A"/>
<path d="M75.2953 10.0482H78.7347V24.7462C78.7347 30.8455 75.1344 33.357 70.8784 33.357C66.87 33.357 64.4575 30.66 63.5543 28.4702L66.7091 27.1586C67.2781 28.5071 68.6514 30.1033 70.8784 30.1033C73.6125 30.1033 75.2953 28.4082 75.2953 25.2411V24.0534H75.1716C74.3549 25.0431 72.7961 25.9338 70.8166 25.9338C66.6843 25.9338 62.8983 22.3335 62.8983 17.6942C62.8983 13.0298 66.6843 9.39258 70.8166 9.39258C72.7838 9.39258 74.3549 10.271 75.1716 11.236H75.2953V10.0484V10.0482ZM75.5426 17.6942C75.5426 14.7743 73.6002 12.6463 71.1258 12.6463C68.6266 12.6463 66.5234 14.7743 66.5234 17.6942C66.5234 20.5767 68.6266 22.6676 71.1258 22.6676C73.6004 22.6801 75.5428 20.5767 75.5428 17.6942H75.5426Z" fill="#3686F7"/>
<path d="M43.3384 17.6322C43.3384 22.3955 39.6269 25.8967 35.0739 25.8967C30.5211 25.8967 26.8094 22.3832 26.8094 17.6322C26.8094 12.8443 30.5211 9.35547 35.0739 9.35547C39.6269 9.35547 43.3384 12.8443 43.3384 17.6322ZM39.7258 17.6322C39.7258 14.6631 37.5729 12.6215 35.0739 12.6215C32.5749 12.6215 30.422 14.6631 30.422 17.6322C30.422 20.5767 32.5749 22.643 35.0739 22.643C37.5731 22.643 39.7258 20.5767 39.7258 17.6322Z" fill="#FF302F"/>
<path d="M61.3892 17.6688C61.3892 22.4321 57.6775 25.9332 53.1247 25.9332C48.5717 25.9332 44.8602 22.4319 44.8602 17.6688C44.8602 12.8808 48.5717 9.4043 53.1247 9.4043C57.6775 9.4043 61.3892 12.8685 61.3892 17.6688ZM57.7641 17.6688C57.7641 14.6996 55.6114 12.658 53.1122 12.658C50.6132 12.658 48.4603 14.6996 48.4603 17.6688C48.4603 20.6132 50.6132 22.6795 53.1122 22.6795C55.6237 22.6795 57.7641 20.6009 57.7641 17.6688Z" fill="#FFBA40"/>
<path d="M13.2247 22.3082C8.04074 22.3082 3.98288 18.1264 3.98288 12.9425C3.98288 7.75876 8.04074 3.57698 13.2247 3.57698C16.0208 3.57698 18.062 4.67803 19.5714 6.08851L22.0583 3.6018C19.9551 1.58519 17.1467 0.0507812 13.2247 0.0507812C6.12322 0.0509799 0.147461 5.84125 0.147461 12.9425C0.147461 20.0441 6.12322 25.8342 13.2247 25.8342C17.0601 25.8342 19.9551 24.5723 22.2192 22.2216C24.545 19.8956 25.2626 16.6294 25.2626 13.9818C25.2626 13.1528 25.1637 12.2992 25.0523 11.6683H13.2247V15.1077H21.65C21.4025 17.2605 20.7221 18.7328 19.72 19.7347C18.5075 20.9597 16.59 22.3082 13.2247 22.3082Z" fill="#3686F7"/>
</g>
<defs>
<clipPath id="clip0_1_195">
<rect width="101.685" height="33.3653" fill="white"/>
</clipPath>
</defs>
</svg>
